<svg xmlns="http://www.w3.org/2000/svg" width="1280" height="980" viewBox="0 0 1280 980"><style>
    .float  { animation: bob 6s ease-in-out infinite; }
    .float2 { animation: bob 7s ease-in-out infinite reverse; }
    .flow   { stroke-dasharray: 7 6; animation: dash 1.1s linear infinite; }
    .pulse  { animation: pulse 2.6s ease-in-out infinite; }
    .flick  { animation: pulse 1.8s ease-in-out infinite; }
    .rise   { animation: rise 0.9s ease-out both; }
    .d0 { animation-delay: 0.00s; }.d1 { animation-delay: 0.35s; }.d2 { animation-delay: 0.70s; }.d3 { animation-delay: 1.05s; }.d4 { animation-delay: 1.40s; }.d5 { animation-delay: 1.75s; }.d6 { animation-delay: 2.10s; }.d7 { animation-delay: 2.45s; }.d8 { animation-delay: 2.80s; }.d9 { animation-delay: 3.15s; }.d10 { animation-delay: 3.50s; }.d11 { animation-delay: 3.85s; }
    @keyframes bob   { 0%,100% { transform: translateY(0) } 50% { transform: translateY(-7px) } }
    @keyframes dash  { to { stroke-dashoffset: -13 } }
    @keyframes pulse { 0%,100% { opacity: 1 } 50% { opacity: 0.35 } }
    @keyframes rise  { from { opacity: 0; transform: translateY(14px) } to { opacity: 1; transform: translateY(0) } }
    @media (prefers-reduced-motion: reduce) { * { animation: none !important; } }
  </style><defs><radialGradient id="bg" cx="0.5" cy="0.32" r="1.05"><stop offset="0" stop-color="#1a2138"/><stop offset="1" stop-color="#0d1220"/></radialGradient><marker id="arr" viewBox="0 0 10 10" refX="9" refY="5" markerWidth="7" markerHeight="7" orient="auto-start-reverse"><path d="M0,0 L10,5 L0,10 z" fill="#7aa2f7"/></marker><filter id="glow" x="-40%" y="-40%" width="180%" height="180%"><feGaussianBlur stdDeviation="6" result="b"/><feMerge><feMergeNode in="b"/><feMergeNode in="SourceGraphic"/></feMerge></filter><filter id="soft" x="-60%" y="-60%" width="220%" height="220%"><feDropShadow dx="0" dy="10" stdDeviation="10" flood-color="#000" flood-opacity="0.45"/></filter><linearGradient id="cylA" x1="0" x2="1"><stop offset="0" stop-color="#e58e5a"/><stop offset="0.5" stop-color="#a56641"/><stop offset="1" stop-color="#7f4f32"/></linearGradient><linearGradient id="cylB" x1="0" x2="1"><stop offset="0" stop-color="#a88ade"/><stop offset="0.5" stop-color="#7964a0"/><stop offset="1" stop-color="#5d4d7b"/></linearGradient></defs><rect width="1280" height="980" rx="18" fill="url(#bg)"/><rect x="1" y="1" width="1278" height="978" rx="17" fill="none" stroke="#e6edf729"/><text x="70" y="58" font-family="'Segoe UI',system-ui,sans-serif" font-size="26" fill="#e6edf7" font-weight="700" text-anchor="start" opacity="1">System architecture</text><text x="70" y="82" font-family="'Cascadia Code','JetBrains Mono',Consolas,monospace" font-size="13" fill="#93a0bd" font-weight="600" text-anchor="start" opacity="1">browser → ingress → gateway → services → data · every hop logs JSON with x-request-id</text><g filter="url(#soft)"><g opacity="1"><polygon points="380.2,270.0 640.0,420.0 640.0,454.0 380.2,304.0" fill="#9e82d1"/><polygon points="899.8,270.0 640.0,420.0 640.0,454.0 899.8,304.0" fill="#735f99"/><polygon points="640.0,120.0 899.8,270.0 640.0,420.0 380.2,270.0" fill="#ffdfff"/></g></g><text x="640" y="225" font-family="'Segoe UI',system-ui,sans-serif" font-size="17" fill="#e6edf7" font-weight="800" text-anchor="middle" letter-spacing="0.12em" opacity="1">TRAEFIK INGRESS</text><text x="640" y="246" font-family="'Cascadia Code','JetBrains Mono',Consolas,monospace" font-size="12.5" fill="#d3dae3" font-weight="600" text-anchor="middle" opacity="1">bakery.local</text><g filter="url(#soft)"><g class="float d1" opacity="1"><polygon points="170.5,425.0 335.0,520.0 335.0,616.0 170.5,521.0" fill="#86af5a"/><polygon points="499.5,425.0 335.0,520.0 335.0,616.0 499.5,521.0" fill="#617f41"/><polygon points="335.0,330.0 499.5,425.0 335.0,520.0 170.5,425.0" fill="#e5ff99"/></g></g><text x="335" y="470" font-family="'Segoe UI',system-ui,sans-serif" font-size="16" fill="#0d1220" font-weight="800" text-anchor="middle" letter-spacing="0.1em" opacity="1">FRONTEND</text><text x="335" y="490" font-family="'Segoe UI',system-ui,sans-serif" font-size="11.5" fill="#0d1220" font-weight="600" text-anchor="middle" opacity="1">nginx · storefront SPA</text><text x="335" y="508" font-family="'Cascadia Code','JetBrains Mono',Consolas,monospace" font-size="12" fill="#0d1220" font-weight="700" text-anchor="middle" opacity="1">:8080</text><g filter="url(#soft)"><g class="float d3" opacity="1"><polygon points="780.5,425.0 945.0,520.0 945.0,616.0 780.5,521.0" fill="#6789d1"/><polygon points="1109.5,425.0 945.0,520.0 945.0,616.0 1109.5,521.0" fill="#4b6499"/><polygon points="945.0,330.0 1109.5,425.0 945.0,520.0 780.5,425.0" fill="#b0eaff"/></g></g><text x="945" y="458" font-family="'Segoe UI',system-ui,sans-serif" font-size="16" fill="#0d1220" font-weight="800" text-anchor="middle" letter-spacing="0.1em" opacity="1">API GATEWAY</text><text x="945" y="478" font-family="'Segoe UI',system-ui,sans-serif" font-size="11.5" fill="#0d1220" font-weight="600" text-anchor="middle" opacity="1">/api · /api/docs (Swagger)</text><text x="945" y="494" font-family="'Segoe UI',system-ui,sans-serif" font-size="11.5" fill="#0d1220" font-weight="600" text-anchor="middle" opacity="1">/api/status · /api/openapi.json</text><text x="945" y="512" font-family="'Cascadia Code','JetBrains Mono',Consolas,monospace" font-size="12" fill="#0d1220" font-weight="700" text-anchor="middle" opacity="1">:3000</text><line class="flow" x1="520" y1="275" x2="375" y2="335" stroke="#7aa2f7" stroke-width="2.2" marker-end="url(#arr)"/><line class="flow" x1="760" y1="275" x2="905" y2="335" stroke="#7aa2f7" stroke-width="2.2" marker-end="url(#arr)"/><text x="441.5" y="291.0" font-family="'Cascadia Code','JetBrains Mono',Consolas,monospace" font-size="12" fill="#93a0bd" font-weight="600" text-anchor="middle" opacity="1">path /</text><text x="844.5" y="291.0" font-family="'Cascadia Code','JetBrains Mono',Consolas,monospace" font-size="12" fill="#93a0bd" font-weight="600" text-anchor="middle" opacity="1">path /api</text><line class="flow" x1="500" y1="450" x2="777" y2="450" stroke="#9ece6a" stroke-width="1.8" marker-end="url(#arr)"/><text x="640.0" y="438" font-family="'Cascadia Code','JetBrains Mono',Consolas,monospace" font-size="11.5" fill="#9ece6a" font-weight="600" text-anchor="middle" opacity="1">fetch /api/* — cart · auth · checkout · search</text><text x="640" y="560" font-family="'Cascadia Code','JetBrains Mono',Consolas,monospace" font-size="13" fill="#93a0bd" font-weight="600" text-anchor="middle" letter-spacing="0.3em" opacity="1">D O M A I N   S E R V I C E S</text><g filter="url(#soft)"><g class="float d0" opacity="1"><polygon points="211.8,614.0 262.0,643.0 262.0,683.0 211.8,654.0" fill="#d16478"/><polygon points="312.2,614.0 262.0,643.0 262.0,683.0 312.2,654.0" fill="#994958"/><polygon points="262.0,585.0 312.2,614.0 262.0,643.0 211.8,614.0" fill="#ffabcd"/></g></g><text x="262" y="609" font-family="'Segoe UI',system-ui,sans-serif" font-size="11.5" fill="#0d1220" font-weight="800" text-anchor="middle" opacity="1">auth</text><text x="262" y="645" font-family="'Cascadia Code','JetBrains Mono',Consolas,monospace" font-size="10.5" fill="#e6edf7" font-weight="700" text-anchor="middle" opacity="1">:3001</text><g filter="url(#soft)"><g class="float d5" opacity="1"><polygon points="341.8,614.0 392.0,643.0 392.0,683.0 341.8,654.0" fill="#9e82d1"/><polygon points="442.2,614.0 392.0,643.0 392.0,683.0 442.2,654.0" fill="#735f99"/><polygon points="392.0,585.0 442.2,614.0 392.0,643.0 341.8,614.0" fill="#ffdfff"/></g></g><text x="392" y="609" font-family="'Segoe UI',system-ui,sans-serif" font-size="11.5" fill="#0d1220" font-weight="800" text-anchor="middle" opacity="1">user</text><text x="392" y="645" font-family="'Cascadia Code','JetBrains Mono',Consolas,monospace" font-size="10.5" fill="#e6edf7" font-weight="700" text-anchor="middle" opacity="1">:3002</text><g filter="url(#soft)"><g class="float d10" opacity="1"><polygon points="471.8,614.0 522.0,643.0 522.0,683.0 471.8,654.0" fill="#6789d1"/><polygon points="572.2,614.0 522.0,643.0 522.0,683.0 572.2,654.0" fill="#4b6499"/><polygon points="522.0,585.0 572.2,614.0 522.0,643.0 471.8,614.0" fill="#b0eaff"/></g></g><text x="522" y="609" font-family="'Segoe UI',system-ui,sans-serif" font-size="11.5" fill="#0d1220" font-weight="800" text-anchor="middle" opacity="1">products</text><text x="522" y="645" font-family="'Cascadia Code','JetBrains Mono',Consolas,monospace" font-size="10.5" fill="#e6edf7" font-weight="700" text-anchor="middle" opacity="1">:3003</text><g filter="url(#soft)"><g class="float d3" opacity="1"><polygon points="601.8,614.0 652.0,643.0 652.0,683.0 601.8,654.0" fill="#86af5a"/><polygon points="702.2,614.0 652.0,643.0 652.0,683.0 702.2,654.0" fill="#617f41"/><polygon points="652.0,585.0 702.2,614.0 652.0,643.0 601.8,614.0" fill="#e5ff99"/></g></g><text x="652" y="609" font-family="'Segoe UI',system-ui,sans-serif" font-size="11.5" fill="#0d1220" font-weight="800" text-anchor="middle" opacity="1">inventory</text><text x="652" y="645" font-family="'Cascadia Code','JetBrains Mono',Consolas,monospace" font-size="10.5" fill="#e6edf7" font-weight="700" text-anchor="middle" opacity="1">:3004</text><g filter="url(#soft)"><g class="float d8" opacity="1"><polygon points="731.8,614.0 782.0,643.0 782.0,683.0 731.8,654.0" fill="#9e82d1"/><polygon points="832.2,614.0 782.0,643.0 782.0,683.0 832.2,654.0" fill="#735f99"/><polygon points="782.0,585.0 832.2,614.0 782.0,643.0 731.8,614.0" fill="#ffdfff"/></g></g><text x="782" y="609" font-family="'Segoe UI',system-ui,sans-serif" font-size="11.5" fill="#0d1220" font-weight="800" text-anchor="middle" opacity="1">pricing</text><text x="782" y="645" font-family="'Cascadia Code','JetBrains Mono',Consolas,monospace" font-size="10.5" fill="#e6edf7" font-weight="700" text-anchor="middle" opacity="1">:3005</text><g filter="url(#soft)"><g class="float d1" opacity="1"><polygon points="861.8,614.0 912.0,643.0 912.0,683.0 861.8,654.0" fill="#d16478"/><polygon points="962.2,614.0 912.0,643.0 912.0,683.0 962.2,654.0" fill="#994958"/><polygon points="912.0,585.0 962.2,614.0 912.0,643.0 861.8,614.0" fill="#ffabcd"/></g></g><text x="912" y="609" font-family="'Segoe UI',system-ui,sans-serif" font-size="11.5" fill="#0d1220" font-weight="800" text-anchor="middle" opacity="1">cart</text><text x="912" y="645" font-family="'Cascadia Code','JetBrains Mono',Consolas,monospace" font-size="10.5" fill="#e6edf7" font-weight="700" text-anchor="middle" opacity="1">:3006</text><g filter="url(#soft)"><g class="float d6" opacity="1"><polygon points="991.8,614.0 1042.0,643.0 1042.0,683.0 991.8,654.0" fill="#6789d1"/><polygon points="1092.2,614.0 1042.0,643.0 1042.0,683.0 1092.2,654.0" fill="#4b6499"/><polygon points="1042.0,585.0 1092.2,614.0 1042.0,643.0 991.8,614.0" fill="#b0eaff"/></g></g><text x="1042" y="609" font-family="'Segoe UI',system-ui,sans-serif" font-size="11.5" fill="#0d1220" font-weight="800" text-anchor="middle" opacity="1">orders</text><text x="1042" y="645" font-family="'Cascadia Code','JetBrains Mono',Consolas,monospace" font-size="10.5" fill="#e6edf7" font-weight="700" text-anchor="middle" opacity="1">:3007</text><g filter="url(#soft)"><g class="float d11" opacity="1"><polygon points="276.8,710.0 327.0,739.0 327.0,779.0 276.8,750.0" fill="#d88655"/><polygon points="377.2,710.0 327.0,739.0 327.0,779.0 377.2,750.0" fill="#9e613e"/><polygon points="327.0,681.0 377.2,710.0 327.0,739.0 276.8,710.0" fill="#ffe591"/></g></g><text x="327" y="705" font-family="'Segoe UI',system-ui,sans-serif" font-size="11.5" fill="#0d1220" font-weight="800" text-anchor="middle" opacity="1">payments</text><text x="327" y="741" font-family="'Cascadia Code','JetBrains Mono',Consolas,monospace" font-size="10.5" fill="#e6edf7" font-weight="700" text-anchor="middle" opacity="1">:3008</text><g filter="url(#soft)"><g class="float d4" opacity="1"><polygon points="406.8,710.0 457.0,739.0 457.0,779.0 406.8,750.0" fill="#86af5a"/><polygon points="507.2,710.0 457.0,739.0 457.0,779.0 507.2,750.0" fill="#617f41"/><polygon points="457.0,681.0 507.2,710.0 457.0,739.0 406.8,710.0" fill="#e5ff99"/></g></g><text x="457" y="705" font-family="'Segoe UI',system-ui,sans-serif" font-size="11.5" fill="#0d1220" font-weight="800" text-anchor="middle" opacity="1">delivery</text><text x="457" y="741" font-family="'Cascadia Code','JetBrains Mono',Consolas,monospace" font-size="10.5" fill="#e6edf7" font-weight="700" text-anchor="middle" opacity="1">:3009</text><g filter="url(#soft)"><g class="float d9" opacity="1"><polygon points="536.8,710.0 587.0,739.0 587.0,779.0 536.8,750.0" fill="#9e82d1"/><polygon points="637.2,710.0 587.0,739.0 587.0,779.0 637.2,750.0" fill="#735f99"/><polygon points="587.0,681.0 637.2,710.0 587.0,739.0 536.8,710.0" fill="#ffdfff"/></g></g><text x="587" y="705" font-family="'Segoe UI',system-ui,sans-serif" font-size="11.5" fill="#0d1220" font-weight="800" text-anchor="middle" opacity="1">notify</text><text x="587" y="741" font-family="'Cascadia Code','JetBrains Mono',Consolas,monospace" font-size="10.5" fill="#e6edf7" font-weight="700" text-anchor="middle" opacity="1">:3010</text><g filter="url(#soft)"><g class="float d2" opacity="1"><polygon points="666.8,710.0 717.0,739.0 717.0,779.0 666.8,750.0" fill="#6789d1"/><polygon points="767.2,710.0 717.0,739.0 717.0,779.0 767.2,750.0" fill="#4b6499"/><polygon points="717.0,681.0 767.2,710.0 717.0,739.0 666.8,710.0" fill="#b0eaff"/></g></g><text x="717" y="705" font-family="'Segoe UI',system-ui,sans-serif" font-size="11.5" fill="#0d1220" font-weight="800" text-anchor="middle" opacity="1">reviews</text><text x="717" y="741" font-family="'Cascadia Code','JetBrains Mono',Consolas,monospace" font-size="10.5" fill="#e6edf7" font-weight="700" text-anchor="middle" opacity="1">:3011</text><g filter="url(#soft)"><g class="float d7" opacity="1"><polygon points="796.8,710.0 847.0,739.0 847.0,779.0 796.8,750.0" fill="#86af5a"/><polygon points="897.2,710.0 847.0,739.0 847.0,779.0 897.2,750.0" fill="#617f41"/><polygon points="847.0,681.0 897.2,710.0 847.0,739.0 796.8,710.0" fill="#e5ff99"/></g></g><text x="847" y="705" font-family="'Segoe UI',system-ui,sans-serif" font-size="11.5" fill="#0d1220" font-weight="800" text-anchor="middle" opacity="1">search</text><text x="847" y="741" font-family="'Cascadia Code','JetBrains Mono',Consolas,monospace" font-size="10.5" fill="#e6edf7" font-weight="700" text-anchor="middle" opacity="1">:3012</text><g filter="url(#soft)"><g class="float d0" opacity="1"><polygon points="926.8,710.0 977.0,739.0 977.0,779.0 926.8,750.0" fill="#9e82d1"/><polygon points="1027.2,710.0 977.0,739.0 977.0,779.0 1027.2,750.0" fill="#735f99"/><polygon points="977.0,681.0 1027.2,710.0 977.0,739.0 926.8,710.0" fill="#ffdfff"/></g></g><text x="977" y="705" font-family="'Segoe UI',system-ui,sans-serif" font-size="11.5" fill="#0d1220" font-weight="800" text-anchor="middle" opacity="1">recomm.</text><text x="977" y="741" font-family="'Cascadia Code','JetBrains Mono',Consolas,monospace" font-size="10.5" fill="#e6edf7" font-weight="700" text-anchor="middle" opacity="1">:3013</text><g filter="url(#soft)"><g class="float d5" opacity="1"><polygon points="1056.8,710.0 1107.0,739.0 1107.0,779.0 1056.8,750.0" fill="#d16478"/><polygon points="1157.2,710.0 1107.0,739.0 1107.0,779.0 1157.2,750.0" fill="#994958"/><polygon points="1107.0,681.0 1157.2,710.0 1107.0,739.0 1056.8,710.0" fill="#ffabcd"/></g></g><text x="1107" y="705" font-family="'Segoe UI',system-ui,sans-serif" font-size="11.5" fill="#0d1220" font-weight="800" text-anchor="middle" opacity="1">promos</text><text x="1107" y="741" font-family="'Cascadia Code','JetBrains Mono',Consolas,monospace" font-size="10.5" fill="#e6edf7" font-weight="700" text-anchor="middle" opacity="1">:3014</text><g filter="url(#soft)"><g class="float d10" opacity="1"><polygon points="211.8,806.0 262.0,835.0 262.0,875.0 211.8,846.0" fill="#6789d1"/><polygon points="312.2,806.0 262.0,835.0 262.0,875.0 312.2,846.0" fill="#4b6499"/><polygon points="262.0,777.0 312.2,806.0 262.0,835.0 211.8,806.0" fill="#b0eaff"/></g></g><text x="262" y="801" font-family="'Segoe UI',system-ui,sans-serif" font-size="11.5" fill="#0d1220" font-weight="800" text-anchor="middle" opacity="1">loyalty</text><text x="262" y="837" font-family="'Cascadia Code','JetBrains Mono',Consolas,monospace" font-size="10.5" fill="#e6edf7" font-weight="700" text-anchor="middle" opacity="1">:3015</text><g filter="url(#soft)"><g class="float d3" opacity="1"><polygon points="341.8,806.0 392.0,835.0 392.0,875.0 341.8,846.0" fill="#86af5a"/><polygon points="442.2,806.0 392.0,835.0 392.0,875.0 442.2,846.0" fill="#617f41"/><polygon points="392.0,777.0 442.2,806.0 392.0,835.0 341.8,806.0" fill="#e5ff99"/></g></g><text x="392" y="801" font-family="'Segoe UI',system-ui,sans-serif" font-size="11.5" fill="#0d1220" font-weight="800" text-anchor="middle" opacity="1">recipes</text><text x="392" y="837" font-family="'Cascadia Code','JetBrains Mono',Consolas,monospace" font-size="10.5" fill="#e6edf7" font-weight="700" text-anchor="middle" opacity="1">:3016</text><g filter="url(#soft)"><g class="float d8" opacity="1"><polygon points="471.8,806.0 522.0,835.0 522.0,875.0 471.8,846.0" fill="#d88655"/><polygon points="572.2,806.0 522.0,835.0 522.0,875.0 572.2,846.0" fill="#9e613e"/><polygon points="522.0,777.0 572.2,806.0 522.0,835.0 471.8,806.0" fill="#ffe591"/></g></g><text x="522" y="801" font-family="'Segoe UI',system-ui,sans-serif" font-size="11.5" fill="#0d1220" font-weight="800" text-anchor="middle" opacity="1">schedule</text><text x="522" y="837" font-family="'Cascadia Code','JetBrains Mono',Consolas,monospace" font-size="10.5" fill="#e6edf7" font-weight="700" text-anchor="middle" opacity="1">:3017</text><g filter="url(#soft)"><g class="float d1" opacity="1"><polygon points="601.8,806.0 652.0,835.0 652.0,875.0 601.8,846.0" fill="#9e82d1"/><polygon points="702.2,806.0 652.0,835.0 652.0,875.0 702.2,846.0" fill="#735f99"/><polygon points="652.0,777.0 702.2,806.0 652.0,835.0 601.8,806.0" fill="#ffdfff"/></g></g><text x="652" y="801" font-family="'Segoe UI',system-ui,sans-serif" font-size="11.5" fill="#0d1220" font-weight="800" text-anchor="middle" opacity="1">suppliers</text><text x="652" y="837" font-family="'Cascadia Code','JetBrains Mono',Consolas,monospace" font-size="10.5" fill="#e6edf7" font-weight="700" text-anchor="middle" opacity="1">:3018</text><g filter="url(#soft)"><g class="float d6" opacity="1"><polygon points="731.8,806.0 782.0,835.0 782.0,875.0 731.8,846.0" fill="#86af5a"/><polygon points="832.2,806.0 782.0,835.0 782.0,875.0 832.2,846.0" fill="#617f41"/><polygon points="782.0,777.0 832.2,806.0 782.0,835.0 731.8,806.0" fill="#e5ff99"/></g></g><text x="782" y="801" font-family="'Segoe UI',system-ui,sans-serif" font-size="11.5" fill="#0d1220" font-weight="800" text-anchor="middle" opacity="1">analytics</text><text x="782" y="837" font-family="'Cascadia Code','JetBrains Mono',Consolas,monospace" font-size="10.5" fill="#e6edf7" font-weight="700" text-anchor="middle" opacity="1">:3019</text><g filter="url(#soft)"><g class="float d11" opacity="1"><polygon points="861.8,806.0 912.0,835.0 912.0,875.0 861.8,846.0" fill="#6789d1"/><polygon points="962.2,806.0 912.0,835.0 912.0,875.0 962.2,846.0" fill="#4b6499"/><polygon points="912.0,777.0 962.2,806.0 912.0,835.0 861.8,806.0" fill="#b0eaff"/></g></g><text x="912" y="801" font-family="'Segoe UI',system-ui,sans-serif" font-size="11.5" fill="#0d1220" font-weight="800" text-anchor="middle" opacity="1">media</text><text x="912" y="837" font-family="'Cascadia Code','JetBrains Mono',Consolas,monospace" font-size="10.5" fill="#e6edf7" font-weight="700" text-anchor="middle" opacity="1">:3020</text><g filter="url(#soft)"><g class="float d4" opacity="1"><polygon points="991.8,806.0 1042.0,835.0 1042.0,875.0 991.8,846.0" fill="#d16478"/><polygon points="1092.2,806.0 1042.0,835.0 1042.0,875.0 1092.2,846.0" fill="#994958"/><polygon points="1042.0,777.0 1092.2,806.0 1042.0,835.0 991.8,806.0" fill="#ffabcd"/></g></g><text x="1042" y="801" font-family="'Segoe UI',system-ui,sans-serif" font-size="11.5" fill="#0d1220" font-weight="800" text-anchor="middle" opacity="1">invoices</text><text x="1042" y="837" font-family="'Cascadia Code','JetBrains Mono',Consolas,monospace" font-size="10.5" fill="#e6edf7" font-weight="700" text-anchor="middle" opacity="1">:3021</text><line class="flow" x1="925" y1="520" x2="660" y2="585" stroke="#7aa2f7" stroke-width="2.2" marker-end="url(#arr)"/><line class="flow" x1="885" y1="515" x2="400" y2="590" stroke="#7aa2f7" stroke-width="1.4" marker-end="url(#arr)"/><line class="flow" x1="955" y1="522" x2="905" y2="588" stroke="#7aa2f7" stroke-width="1.4" marker-end="url(#arr)"/><text class="pulse" x="820" y="545" font-family="'Cascadia Code','JetBrains Mono',Consolas,monospace" font-size="11.5" fill="#7aa2f7" font-weight="600" text-anchor="middle" opacity="1">proxy + x-request-id</text><g filter="url(#soft)"><path d="M 328 900 v 40 a 62 32.21709006928406 0 0 0 124 0 v -40" fill="url(#cylA)"/><ellipse cx="390" cy="900" rx="62" ry="32.21709006928406" fill="#ffe591"/></g><text x="390" y="923" font-family="'Segoe UI',system-ui,sans-serif" font-size="13" fill="#e6edf7" font-weight="800" text-anchor="middle" opacity="1">REDIS 7</text><text x="390" y="940" font-family="'Cascadia Code','JetBrains Mono',Consolas,monospace" font-size="10.5" fill="#cfd5de" font-weight="600" text-anchor="middle" opacity="1">carts · TTL 7d</text><g filter="url(#soft)"><path d="M 792 900 v 44 a 88 45.72748267898384 0 0 0 176 0 v -44" fill="url(#cylB)"/><ellipse cx="880" cy="900" rx="88" ry="45.72748267898384" fill="#ffdfff"/></g><text x="880" y="925" font-family="'Segoe UI',system-ui,sans-serif" font-size="13" fill="#e6edf7" font-weight="800" text-anchor="middle" opacity="1">POSTGRESQL 16</text><text x="880" y="942" font-family="'Cascadia Code','JetBrains Mono',Consolas,monospace" font-size="10.5" fill="#cfd5de" font-weight="600" text-anchor="middle" opacity="1">users · products · orders · payments · invoices</text><line class="flow" x1="455" y1="795" x2="400" y2="860" stroke="#f7768e" stroke-width="1.6" marker-end="url(#arr)"/><line class="flow" x1="700" y1="800" x2="830" y2="858" stroke="#bb9af7" stroke-width="1.6" marker-end="url(#arr)"/></svg>