<svg xmlns="http://www.w3.org/2000/svg" width="1200" height="360" viewBox="0 0 1200 360"><style>
    .float  { animation: bob 6s ease-in-out infinite; }
    .float2 { animation: bob 7s ease-in-out infinite reverse; }
    .flow   { stroke-dasharray: 7 6; animation: dash 1.1s linear infinite; }
    .pulse  { animation: pulse 2.6s ease-in-out infinite; }
    .flick  { animation: pulse 1.8s ease-in-out infinite; }
    .rise   { animation: rise 0.9s ease-out both; }
    .d0 { animation-delay: 0.00s; }.d1 { animation-delay: 0.35s; }.d2 { animation-delay: 0.70s; }.d3 { animation-delay: 1.05s; }.d4 { animation-delay: 1.40s; }.d5 { animation-delay: 1.75s; }.d6 { animation-delay: 2.10s; }.d7 { animation-delay: 2.45s; }.d8 { animation-delay: 2.80s; }.d9 { animation-delay: 3.15s; }.d10 { animation-delay: 3.50s; }.d11 { animation-delay: 3.85s; }
    @keyframes bob   { 0%,100% { transform: translateY(0) } 50% { transform: translateY(-7px) } }
    @keyframes dash  { to { stroke-dashoffset: -13 } }
    @keyframes pulse { 0%,100% { opacity: 1 } 50% { opacity: 0.35 } }
    @keyframes rise  { from { opacity: 0; transform: translateY(14px) } to { opacity: 1; transform: translateY(0) } }
    @media (prefers-reduced-motion: reduce) { * { animation: none !important; } }
  </style><defs><radialGradient id="bg" cx="0.5" cy="0.32" r="1.05"><stop offset="0" stop-color="#1a2138"/><stop offset="1" stop-color="#0d1220"/></radialGradient><marker id="arr" viewBox="0 0 10 10" refX="9" refY="5" markerWidth="7" markerHeight="7" orient="auto-start-reverse"><path d="M0,0 L10,5 L0,10 z" fill="#7aa2f7"/></marker><filter id="glow" x="-40%" y="-40%" width="180%" height="180%"><feGaussianBlur stdDeviation="6" result="b"/><feMerge><feMergeNode in="b"/><feMergeNode in="SourceGraphic"/></feMerge></filter><filter id="soft" x="-60%" y="-60%" width="220%" height="220%"><feDropShadow dx="0" dy="10" stdDeviation="10" flood-color="#000" flood-opacity="0.45"/></filter></defs><rect width="1200" height="360" rx="18" fill="url(#bg)"/><rect x="1" y="1" width="1198" height="358" rx="17" fill="none" stroke="#e6edf729"/><g opacity="0.35"><line x1="-540" y1="360" x2="83.51999999999998" y2="0" stroke="#e6edf729" stroke-width="0.6"/><line x1="-540" y1="0" x2="83.51999999999998" y2="360" stroke="#e6edf729" stroke-width="0.6"/><line x1="-450" y1="360" x2="173.51999999999998" y2="0" stroke="#e6edf729" stroke-width="0.6"/><line x1="-450" y1="0" x2="173.51999999999998" y2="360" stroke="#e6edf729" stroke-width="0.6"/><line x1="-360" y1="360" x2="263.52" y2="0" stroke="#e6edf729" stroke-width="0.6"/><line x1="-360" y1="0" x2="263.52" y2="360" stroke="#e6edf729" stroke-width="0.6"/><line x1="-270" y1="360" x2="353.52" y2="0" stroke="#e6edf729" stroke-width="0.6"/><line x1="-270" y1="0" x2="353.52" y2="360" stroke="#e6edf729" stroke-width="0.6"/><line x1="-180" y1="360" x2="443.52" y2="0" stroke="#e6edf729" stroke-width="0.6"/><line x1="-180" y1="0" x2="443.52" y2="360" stroke="#e6edf729" stroke-width="0.6"/><line x1="-90" y1="360" x2="533.52" y2="0" stroke="#e6edf729" stroke-width="0.6"/><line x1="-90" y1="0" x2="533.52" y2="360" stroke="#e6edf729" stroke-width="0.6"/><line x1="0" y1="360" x2="623.52" y2="0" stroke="#e6edf729" stroke-width="0.6"/><line x1="0" y1="0" x2="623.52" y2="360" stroke="#e6edf729" stroke-width="0.6"/><line x1="90" y1="360" x2="713.52" y2="0" stroke="#e6edf729" stroke-width="0.6"/><line x1="90" y1="0" x2="713.52" y2="360" stroke="#e6edf729" stroke-width="0.6"/><line x1="180" y1="360" x2="803.52" y2="0" stroke="#e6edf729" stroke-width="0.6"/><line x1="180" y1="0" x2="803.52" y2="360" stroke="#e6edf729" stroke-width="0.6"/><line x1="270" y1="360" x2="893.52" y2="0" stroke="#e6edf729" stroke-width="0.6"/><line x1="270" y1="0" x2="893.52" y2="360" stroke="#e6edf729" stroke-width="0.6"/><line x1="360" y1="360" x2="983.52" y2="0" stroke="#e6edf729" stroke-width="0.6"/><line x1="360" y1="0" x2="983.52" y2="360" stroke="#e6edf729" stroke-width="0.6"/><line x1="450" y1="360" x2="1073.52" y2="0" stroke="#e6edf729" stroke-width="0.6"/><line x1="450" y1="0" x2="1073.52" y2="360" stroke="#e6edf729" stroke-width="0.6"/><line x1="540" y1="360" x2="1163.52" y2="0" stroke="#e6edf729" stroke-width="0.6"/><line x1="540" y1="0" x2="1163.52" y2="360" stroke="#e6edf729" stroke-width="0.6"/><line x1="630" y1="360" x2="1253.52" y2="0" stroke="#e6edf729" stroke-width="0.6"/><line x1="630" y1="0" x2="1253.52" y2="360" stroke="#e6edf729" stroke-width="0.6"/><line x1="720" y1="360" x2="1343.52" y2="0" stroke="#e6edf729" stroke-width="0.6"/><line x1="720" y1="0" x2="1343.52" y2="360" stroke="#e6edf729" stroke-width="0.6"/><line x1="810" y1="360" x2="1433.52" y2="0" stroke="#e6edf729" stroke-width="0.6"/><line x1="810" y1="0" x2="1433.52" y2="360" stroke="#e6edf729" stroke-width="0.6"/><line x1="900" y1="360" x2="1523.52" y2="0" stroke="#e6edf729" stroke-width="0.6"/><line x1="900" y1="0" x2="1523.52" y2="360" stroke="#e6edf729" stroke-width="0.6"/><line x1="990" y1="360" x2="1613.52" y2="0" stroke="#e6edf729" stroke-width="0.6"/><line x1="990" y1="0" x2="1613.52" y2="360" stroke="#e6edf729" stroke-width="0.6"/><line x1="1080" y1="360" x2="1703.52" y2="0" stroke="#e6edf729" stroke-width="0.6"/><line x1="1080" y1="0" x2="1703.52" y2="360" stroke="#e6edf729" stroke-width="0.6"/><line x1="1170" y1="360" x2="1793.52" y2="0" stroke="#e6edf729" stroke-width="0.6"/><line x1="1170" y1="0" x2="1793.52" y2="360" stroke="#e6edf729" stroke-width="0.6"/><line x1="1260" y1="360" x2="1883.52" y2="0" stroke="#e6edf729" stroke-width="0.6"/><line x1="1260" y1="0" x2="1883.52" y2="360" stroke="#e6edf729" stroke-width="0.6"/><line x1="1350" y1="360" x2="1973.52" y2="0" stroke="#e6edf729" stroke-width="0.6"/><line x1="1350" y1="0" x2="1973.52" y2="360" stroke="#e6edf729" stroke-width="0.6"/><line x1="1440" y1="360" x2="2063.52" y2="0" stroke="#e6edf729" stroke-width="0.6"/><line x1="1440" y1="0" x2="2063.52" y2="360" stroke="#e6edf729" stroke-width="0.6"/><line x1="1530" y1="360" x2="2153.52" y2="0" stroke="#e6edf729" stroke-width="0.6"/><line x1="1530" y1="0" x2="2153.52" y2="360" stroke="#e6edf729" stroke-width="0.6"/><line x1="1620" y1="360" x2="2243.52" y2="0" stroke="#e6edf729" stroke-width="0.6"/><line x1="1620" y1="0" x2="2243.52" y2="360" stroke="#e6edf729" stroke-width="0.6"/><line x1="1710" y1="360" x2="2333.52" y2="0" stroke="#e6edf729" stroke-width="0.6"/><line x1="1710" y1="0" x2="2333.52" y2="360" stroke="#e6edf729" stroke-width="0.6"/></g><g filter="url(#soft)"><g class="float d0" opacity="1"><polygon points="50.0,116.0 95.0,142.0 95.0,188.8 50.0,162.8" fill="#6789d1"/><polygon points="140.0,116.0 95.0,142.0 95.0,188.8 140.0,162.8" fill="#4b6499"/><polygon points="95.0,90.0 140.0,116.0 95.0,142.0 50.0,116.0" fill="#b0eaff"/></g></g><g filter="url(#soft)"><g class="float2 d1" opacity="1"><polygon points="150.6,187.0 180.0,204.0 180.0,234.6 150.6,217.6" fill="#86af5a"/><polygon points="209.4,187.0 180.0,204.0 180.0,234.6 209.4,217.6" fill="#617f41"/><polygon points="180.0,170.0 209.4,187.0 180.0,204.0 150.6,187.0" fill="#e5ff99"/></g></g><g filter="url(#soft)"><g class="float d2" opacity="1"><polygon points="47.5,228.0 70.0,241.0 70.0,264.4 47.5,251.4" fill="#d16478"/><polygon points="92.5,228.0 70.0,241.0 70.0,264.4 92.5,251.4" fill="#994958"/><polygon points="70.0,215.0 92.5,228.0 70.0,241.0 47.5,228.0" fill="#ffabcd"/></g></g><g filter="url(#soft)"><g class="float2 d3" opacity="1"><polygon points="1008.4,104.0 1050.0,128.0 1050.0,171.2 1008.4,147.2" fill="#86af5a"/><polygon points="1091.6,104.0 1050.0,128.0 1050.0,171.2 1091.6,147.2" fill="#617f41"/><polygon points="1050.0,80.0 1091.6,104.0 1050.0,128.0 1008.4,104.0" fill="#e5ff99"/></g></g><g filter="url(#soft)"><g class="float d4" opacity="1"><polygon points="1079.0,205.0 1105.0,220.0 1105.0,247.0 1079.0,232.0" fill="#6789d1"/><polygon points="1131.0,205.0 1105.0,220.0 1105.0,247.0 1131.0,232.0" fill="#4b6499"/><polygon points="1105.0,190.0 1131.0,205.0 1105.0,220.0 1079.0,205.0" fill="#b0eaff"/></g></g><g filter="url(#soft)"><g class="float2 d5" opacity="1"><polygon points="969.2,217.0 990.0,229.0 990.0,250.6 969.2,238.6" fill="#9e82d1"/><polygon points="1010.8,217.0 990.0,229.0 990.0,250.6 1010.8,238.6" fill="#735f99"/><polygon points="990.0,205.0 1010.8,217.0 990.0,229.0 969.2,217.0" fill="#ffdfff"/></g></g><g filter="url(#soft)"><g class="float d6" opacity="1"><polygon points="917.7,130.0 935.0,140.0 935.0,158.0 917.7,148.0" fill="#d88655"/><polygon points="952.3,130.0 935.0,140.0 935.0,158.0 952.3,148.0" fill="#9e613e"/><polygon points="935.0,120.0 952.3,130.0 935.0,140.0 917.7,130.0" fill="#ffe591"/></g></g><g filter="url(#soft)"><g class="float2 d7" opacity="1"><polygon points="230.9,81.0 250.0,92.0 250.0,111.8 230.9,100.8" fill="#9e82d1"/><polygon points="269.1,81.0 250.0,92.0 250.0,111.8 269.1,100.8" fill="#735f99"/><polygon points="250.0,70.0 269.1,81.0 250.0,92.0 230.9,81.0" fill="#ffdfff"/></g></g><g class="rise" filter="url(#glow)"><text x="614.0" y="179.0" font-family="'Segoe UI',system-ui,sans-serif" font-size="84" fill="#314783" font-weight="800" text-anchor="middle" letter-spacing="0.04em" opacity="1">CRUMB &amp;amp; EMBER</text><text x="612.6" y="177.6" font-family="'Segoe UI',system-ui,sans-serif" font-size="84" fill="#304680" font-weight="800" text-anchor="middle" letter-spacing="0.04em" opacity="1">CRUMB &amp;amp; EMBER</text><text x="611.2" y="176.2" font-family="'Segoe UI',system-ui,sans-serif" font-size="84" fill="#2f457e" font-weight="800" text-anchor="middle" letter-spacing="0.04em" opacity="1">CRUMB &amp;amp; EMBER</text><text x="609.8" y="174.8" font-family="'Segoe UI',system-ui,sans-serif" font-size="84" fill="#2e437c" font-weight="800" text-anchor="middle" letter-spacing="0.04em" opacity="1">CRUMB &amp;amp; EMBER</text><text x="608.4" y="173.4" font-family="'Segoe UI',system-ui,sans-serif" font-size="84" fill="#2e4279" font-weight="800" text-anchor="middle" letter-spacing="0.04em" opacity="1">CRUMB &amp;amp; EMBER</text><text x="607.0" y="172.0" font-family="'Segoe UI',system-ui,sans-serif" font-size="84" fill="#2d4177" font-weight="800" text-anchor="middle" letter-spacing="0.04em" opacity="1">CRUMB &amp;amp; EMBER</text><text x="605.6" y="170.6" font-family="'Segoe UI',system-ui,sans-serif" font-size="84" fill="#2c3f75" font-weight="800" text-anchor="middle" letter-spacing="0.04em" opacity="1">CRUMB &amp;amp; EMBER</text><text x="604.2" y="169.2" font-family="'Segoe UI',system-ui,sans-serif" font-size="84" fill="#2b3e72" font-weight="800" text-anchor="middle" letter-spacing="0.04em" opacity="1">CRUMB &amp;amp; EMBER</text><text x="602.8" y="167.8" font-family="'Segoe UI',system-ui,sans-serif" font-size="84" fill="#2a3d70" font-weight="800" text-anchor="middle" letter-spacing="0.04em" opacity="1">CRUMB &amp;amp; EMBER</text><text x="601.4" y="166.4" font-family="'Segoe UI',system-ui,sans-serif" font-size="84" fill="#293c6e" font-weight="800" text-anchor="middle" letter-spacing="0.04em" opacity="1">CRUMB &amp;amp; EMBER</text><text x="600" y="165" font-family="'Segoe UI',system-ui,sans-serif" font-size="84" fill="#7aa2f7" font-weight="800" text-anchor="middle" letter-spacing="0.04em" opacity="1">CRUMB &amp;amp; EMBER</text></g><text class="rise d2" x="600" y="215" font-family="'Cascadia Code','JetBrains Mono',Consolas,monospace" font-size="17" fill="#9ece6a" font-weight="600" text-anchor="middle" letter-spacing="0.35em" opacity="1">C L O U D  ·  N A T I V E  ·  B A K E R Y</text><text class="rise d3" x="600" y="262" font-family="'Segoe UI',system-ui,sans-serif" font-size="16" fill="#93a0bd" font-weight="500" text-anchor="middle" opacity="1">21 microservices · one port each · API gateway · Swagger UI · PostgreSQL · Redis · Kubernetes</text><g class="rise d4"><rect x="194.0" y="292" width="104" height="26" rx="13" fill="#0d1220" stroke="#e6edf729"/><text x="246.0" y="309" font-family="'Cascadia Code','JetBrains Mono',Consolas,monospace" font-size="11" fill="#93a0bd" font-weight="600" text-anchor="middle" opacity="1">auth :3001</text></g><g class="rise d5"><rect x="312.0" y="292" width="104" height="26" rx="13" fill="#0d1220" stroke="#e6edf729"/><text x="364.0" y="309" font-family="'Cascadia Code','JetBrains Mono',Consolas,monospace" font-size="11" fill="#93a0bd" font-weight="600" text-anchor="middle" opacity="1">cart :3006</text></g><g class="rise d6"><rect x="430.0" y="292" width="104" height="26" rx="13" fill="#0d1220" stroke="#e6edf729"/><text x="482.0" y="309" font-family="'Cascadia Code','JetBrains Mono',Consolas,monospace" font-size="11" fill="#93a0bd" font-weight="600" text-anchor="middle" opacity="1">orders :3007</text></g><g class="rise d7"><rect x="548.0" y="292" width="104" height="26" rx="13" fill="#0d1220" stroke="#e6edf729"/><text x="600.0" y="309" font-family="'Cascadia Code','JetBrains Mono',Consolas,monospace" font-size="11" fill="#93a0bd" font-weight="600" text-anchor="middle" opacity="1">payments :3008</text></g><g class="rise d8"><rect x="666.0" y="292" width="104" height="26" rx="13" fill="#0d1220" stroke="#e6edf729"/><text x="718.0" y="309" font-family="'Cascadia Code','JetBrains Mono',Consolas,monospace" font-size="11" fill="#93a0bd" font-weight="600" text-anchor="middle" opacity="1">delivery :3009</text></g><g class="rise d9"><rect x="784.0" y="292" width="104" height="26" rx="13" fill="#0d1220" stroke="#e6edf729"/><text x="836.0" y="309" font-family="'Cascadia Code','JetBrains Mono',Consolas,monospace" font-size="11" fill="#93a0bd" font-weight="600" text-anchor="middle" opacity="1">loyalty :3015</text></g><g class="rise d10"><rect x="902.0" y="292" width="104" height="26" rx="13" fill="#0d1220" stroke="#e6edf729"/><text x="954.0" y="309" font-family="'Cascadia Code','JetBrains Mono',Consolas,monospace" font-size="11" fill="#93a0bd" font-weight="600" text-anchor="middle" opacity="1">+15 more</text></g></svg>