<svg xmlns="http://www.w3.org/2000/svg" width="1280" height="420" viewBox="0 0 1280 420"><style>
    .float  { animation: bob 6s ease-in-out infinite; }
    .float2 { animation: bob 7s ease-in-out infinite reverse; }
    .flow   { stroke-dasharray: 7 6; animation: dash 1.1s linear infinite; }
    .pulse  { animation: pulse 2.6s ease-in-out infinite; }
    .flick  { animation: pulse 1.8s ease-in-out infinite; }
    .rise   { animation: rise 0.9s ease-out both; }
    .d0 { animation-delay: 0.00s; }.d1 { animation-delay: 0.35s; }.d2 { animation-delay: 0.70s; }.d3 { animation-delay: 1.05s; }.d4 { animation-delay: 1.40s; }.d5 { animation-delay: 1.75s; }.d6 { animation-delay: 2.10s; }.d7 { animation-delay: 2.45s; }.d8 { animation-delay: 2.80s; }.d9 { animation-delay: 3.15s; }.d10 { animation-delay: 3.50s; }.d11 { animation-delay: 3.85s; }
    @keyframes bob   { 0%,100% { transform: translateY(0) } 50% { transform: translateY(-7px) } }
    @keyframes dash  { to { stroke-dashoffset: -13 } }
    @keyframes pulse { 0%,100% { opacity: 1 } 50% { opacity: 0.35 } }
    @keyframes rise  { from { opacity: 0; transform: translateY(14px) } to { opacity: 1; transform: translateY(0) } }
    @media (prefers-reduced-motion: reduce) { * { animation: none !important; } }
  </style><defs><radialGradient id="bg" cx="0.5" cy="0.32" r="1.05"><stop offset="0" stop-color="#301a2a"/><stop offset="1" stop-color="#1c0f18"/></radialGradient><marker id="arr" viewBox="0 0 10 10" refX="9" refY="5" markerWidth="7" markerHeight="7" orient="auto-start-reverse"><path d="M0,0 L10,5 L0,10 z" fill="#e88fb1"/></marker><filter id="glow" x="-40%" y="-40%" width="180%" height="180%"><feGaussianBlur stdDeviation="6" result="b"/><feMerge><feMergeNode in="b"/><feMergeNode in="SourceGraphic"/></feMerge></filter><filter id="soft" x="-60%" y="-60%" width="220%" height="220%"><feDropShadow dx="0" dy="10" stdDeviation="10" flood-color="#000" flood-opacity="0.45"/></filter></defs><rect width="1280" height="420" rx="18" fill="url(#bg)"/><rect x="1" y="1" width="1278" height="418" rx="17" fill="none" stroke="#f7e6ee29"/><text x="70" y="56" font-family="'Segoe UI',system-ui,sans-serif" font-size="24" fill="#f7e6ee" font-weight="700" text-anchor="start" opacity="1">Checkout — one click, seven services</text><text x="70" y="80" font-family="'Cascadia Code','JetBrains Mono',Consolas,monospace" font-size="13" fill="#c9a8ba" font-weight="600" text-anchor="start" opacity="1">the storefront drives this exact pipeline and shows each hop live</text><g filter="url(#soft)"><polygon points="70.0,330.0 1210.0,258.0 1210.0,286.0 70.0,358.0" fill="#2a1624"/><polygon points="70.0,318.0 1210.0,246.0 1210.0,258.0 70.0,330.0" fill="#371d30"/></g><g filter="url(#soft)"><g class="float d0" opacity="1"><polygon points="76.3,221.0 130.0,252.0 130.0,298.0 76.3,267.0" fill="#be4e4e"/><polygon points="183.7,221.0 130.0,252.0 130.0,298.0 183.7,267.0" fill="#8a3939"/><polygon points="130.0,190.0 183.7,221.0 130.0,252.0 76.3,221.0" fill="#ff8585"/></g></g><text class="float d0" x="130" y="208" font-size="22" text-anchor="middle">🧺</text><text x="130" y="264" font-family="'Segoe UI',system-ui,sans-serif" font-size="13" fill="#f7e6ee" font-weight="800" text-anchor="middle" opacity="1">cart</text><text x="130" y="281" font-family="'Cascadia Code','JetBrains Mono',Consolas,monospace" font-size="10.5" fill="#c9a8ba" font-weight="600" text-anchor="middle" opacity="1">:3006</text><text x="130" y="296" font-family="'Cascadia Code','JetBrains Mono',Consolas,monospace" font-size="9.5" fill="#c9a8ba" font-weight="600" text-anchor="middle" opacity="0.85">/carts/:uid</text><line class="flow" x1="188" y1="212" x2="235" y2="203" stroke="#e88fb1" stroke-width="2" marker-end="url(#arr)"/><g filter="url(#soft)"><g class="float d1" opacity="1"><polygon points="241.3,212.0 295.0,243.0 295.0,289.0 241.3,258.0" fill="#c57996"/><polygon points="348.7,212.0 295.0,243.0 295.0,289.0 348.7,258.0" fill="#8f586d"/><polygon points="295.0,181.0 348.7,212.0 295.0,243.0 241.3,212.0" fill="#ffcfff"/></g></g><text class="float d1" x="295" y="199" font-size="22" text-anchor="middle">📦</text><text x="295" y="255" font-family="'Segoe UI',system-ui,sans-serif" font-size="13" fill="#f7e6ee" font-weight="800" text-anchor="middle" opacity="1">order</text><text x="295" y="272" font-family="'Cascadia Code','JetBrains Mono',Consolas,monospace" font-size="10.5" fill="#c9a8ba" font-weight="600" text-anchor="middle" opacity="1">:3007</text><text x="295" y="287" font-family="'Cascadia Code','JetBrains Mono',Consolas,monospace" font-size="9.5" fill="#c9a8ba" font-weight="600" text-anchor="middle" opacity="0.85">/orders</text><line class="flow" x1="353" y1="203" x2="400" y2="194" stroke="#e88fb1" stroke-width="2" marker-end="url(#arr)"/><g filter="url(#soft)"><g class="float d2" opacity="1"><polygon points="406.3,203.0 460.0,234.0 460.0,280.0 406.3,249.0" fill="#c59540"/><polygon points="513.7,203.0 460.0,234.0 460.0,280.0 513.7,249.0" fill="#8f6d2f"/><polygon points="460.0,172.0 513.7,203.0 460.0,234.0 406.3,203.0" fill="#ffff6e"/></g></g><text class="float d2" x="460" y="190" font-size="22" text-anchor="middle">💳</text><text x="460" y="246" font-family="'Segoe UI',system-ui,sans-serif" font-size="13" fill="#f7e6ee" font-weight="800" text-anchor="middle" opacity="1">payment</text><text x="460" y="263" font-family="'Cascadia Code','JetBrains Mono',Consolas,monospace" font-size="10.5" fill="#c9a8ba" font-weight="600" text-anchor="middle" opacity="1">:3008</text><text x="460" y="278" font-family="'Cascadia Code','JetBrains Mono',Consolas,monospace" font-size="9.5" fill="#c9a8ba" font-weight="600" text-anchor="middle" opacity="0.85">/payments</text><line class="flow" x1="518" y1="194" x2="565" y2="185" stroke="#e88fb1" stroke-width="2" marker-end="url(#arr)"/><g filter="url(#soft)"><g class="float d3" opacity="1"><polygon points="571.3,194.0 625.0,225.0 625.0,271.0 571.3,240.0" fill="#8aaa75"/><polygon points="678.7,194.0 625.0,225.0 625.0,271.0 678.7,240.0" fill="#657c55"/><polygon points="625.0,163.0 678.7,194.0 625.0,225.0 571.3,194.0" fill="#ecffc8"/></g></g><text class="float d3" x="625" y="181" font-size="22" text-anchor="middle">🚚</text><text x="625" y="237" font-family="'Segoe UI',system-ui,sans-serif" font-size="13" fill="#f7e6ee" font-weight="800" text-anchor="middle" opacity="1">delivery</text><text x="625" y="254" font-family="'Cascadia Code','JetBrains Mono',Consolas,monospace" font-size="10.5" fill="#c9a8ba" font-weight="600" text-anchor="middle" opacity="1">:3009</text><text x="625" y="269" font-family="'Cascadia Code','JetBrains Mono',Consolas,monospace" font-size="9.5" fill="#c9a8ba" font-weight="600" text-anchor="middle" opacity="0.85">/deliveries</text><line class="flow" x1="683" y1="185" x2="730" y2="176" stroke="#e88fb1" stroke-width="2" marker-end="url(#arr)"/><g filter="url(#soft)"><g class="float d4" opacity="1"><polygon points="736.3,185.0 790.0,216.0 790.0,262.0 736.3,231.0" fill="#826ab8"/><polygon points="843.7,185.0 790.0,216.0 790.0,262.0 843.7,231.0" fill="#5f4d86"/><polygon points="790.0,154.0 843.7,185.0 790.0,216.0 736.3,185.0" fill="#dfb5ff"/></g></g><text class="float d4" x="790" y="172" font-size="22" text-anchor="middle">🧾</text><text x="790" y="228" font-family="'Segoe UI',system-ui,sans-serif" font-size="13" fill="#f7e6ee" font-weight="800" text-anchor="middle" opacity="1">invoice</text><text x="790" y="245" font-family="'Cascadia Code','JetBrains Mono',Consolas,monospace" font-size="10.5" fill="#c9a8ba" font-weight="600" text-anchor="middle" opacity="1">:3021</text><text x="790" y="260" font-family="'Cascadia Code','JetBrains Mono',Consolas,monospace" font-size="9.5" fill="#c9a8ba" font-weight="600" text-anchor="middle" opacity="0.85">/invoices</text><line class="flow" x1="848" y1="176" x2="895" y2="167" stroke="#e88fb1" stroke-width="2" marker-end="url(#arr)"/><g filter="url(#soft)"><g class="float d5" opacity="1"><polygon points="901.3,176.0 955.0,207.0 955.0,253.0 901.3,222.0" fill="#c57996"/><polygon points="1008.7,176.0 955.0,207.0 955.0,253.0 1008.7,222.0" fill="#8f586d"/><polygon points="955.0,145.0 1008.7,176.0 955.0,207.0 901.3,176.0" fill="#ffcfff"/></g></g><text class="float d5" x="955" y="163" font-size="22" text-anchor="middle">⭐</text><text x="955" y="219" font-family="'Segoe UI',system-ui,sans-serif" font-size="13" fill="#f7e6ee" font-weight="800" text-anchor="middle" opacity="1">loyalty</text><text x="955" y="236" font-family="'Cascadia Code','JetBrains Mono',Consolas,monospace" font-size="10.5" fill="#c9a8ba" font-weight="600" text-anchor="middle" opacity="1">:3015</text><text x="955" y="251" font-family="'Cascadia Code','JetBrains Mono',Consolas,monospace" font-size="9.5" fill="#c9a8ba" font-weight="600" text-anchor="middle" opacity="0.85">/loyalty/:uid/earn</text><line class="flow" x1="1013" y1="167" x2="1060" y2="158" stroke="#e88fb1" stroke-width="2" marker-end="url(#arr)"/><g filter="url(#soft)"><g class="float d6" opacity="1"><polygon points="1066.3,167.0 1120.0,198.0 1120.0,244.0 1066.3,213.0" fill="#8aaa75"/><polygon points="1173.7,167.0 1120.0,198.0 1120.0,244.0 1173.7,213.0" fill="#657c55"/><polygon points="1120.0,136.0 1173.7,167.0 1120.0,198.0 1066.3,167.0" fill="#ecffc8"/></g></g><text class="float d6" x="1120" y="154" font-size="22" text-anchor="middle">✉️</text><text x="1120" y="210" font-family="'Segoe UI',system-ui,sans-serif" font-size="13" fill="#f7e6ee" font-weight="800" text-anchor="middle" opacity="1">notify</text><text x="1120" y="227" font-family="'Cascadia Code','JetBrains Mono',Consolas,monospace" font-size="10.5" fill="#c9a8ba" font-weight="600" text-anchor="middle" opacity="1">:3010</text><text x="1120" y="242" font-family="'Cascadia Code','JetBrains Mono',Consolas,monospace" font-size="9.5" fill="#c9a8ba" font-weight="600" text-anchor="middle" opacity="0.85">/notify/email</text><text class="pulse" x="640" y="392" font-family="'Cascadia Code','JetBrains Mono',Consolas,monospace" font-size="12.5" fill="#a3c98a" font-weight="600" text-anchor="middle" opacity="1">order o_x91k2 · payment succeeded · rider ETA 45 min · invoice inv_77 · +13 pts · email sent</text></svg>